<mxfile host="Electron" agent="Mozilla/5.0 (X11; Linux x86_64) AppleWebKit/537.36 (KHTML, like Gecko) draw.io/28.0.6 Chrome/138.0.7204.100 Electron/37.2.3 Safari/537.36" version="28.0.6">
  <diagram name="第 1 页" id="xwlVY48jZOfA3PrioJLu">
    <mxGraphModel dx="3204" dy="2539" grid="1" gridSize="10" guides="1" tooltips="1" connect="1" arrows="1" fold="1" page="1" pageScale="1" pageWidth="827" pageHeight="1169" math="0" shadow="0">
      <root>
        <mxCell id="0" />
        <mxCell id="1" parent="0" />
        <mxCell id="1j3soAuKBiSglBNwDgY3-29" value="Spring代码" style="rounded=0;whiteSpace=wrap;html=1;fontSize=20;fillColor=#dae8fc;strokeColor=#6c8ebf;" parent="1" vertex="1">
          <mxGeometry x="-230" y="1400" width="130" height="40" as="geometry" />
        </mxCell>
        <mxCell id="1j3soAuKBiSglBNwDgY3-30" value="Dubbo代码" style="rounded=0;whiteSpace=wrap;html=1;fontSize=20;fillColor=#ffe6cc;strokeColor=#d79b00;" parent="1" vertex="1">
          <mxGeometry x="220" y="1400" width="130" height="40" as="geometry" />
        </mxCell>
        <mxCell id="MJl2RSiWA88DYP8mbdHT-1" value="«interface»&lt;br&gt;&lt;b&gt;NamespaceHandler&lt;/b&gt;" style="html=1;whiteSpace=wrap;fontSize=20;fillColor=#dae8fc;strokeColor=#6c8ebf;" parent="1" vertex="1">
          <mxGeometry x="-720" y="341" width="480" height="50" as="geometry" />
        </mxCell>
        <mxCell id="MJl2RSiWA88DYP8mbdHT-23" value="&lt;span style=&quot;font-size: 20px;&quot;&gt;&lt;b&gt;DubboNamespaceHandler&lt;/b&gt;&lt;/span&gt;" style="swimlane;fontStyle=0;childLayout=stackLayout;horizontal=1;startSize=26;fillColor=#ffe6cc;horizontalStack=0;resizeParent=1;resizeParentMax=0;resizeLast=0;collapsible=1;marginBottom=0;whiteSpace=wrap;html=1;strokeColor=#d79b00;" parent="1" vertex="1">
          <mxGeometry x="-720" y="391" width="480" height="90" as="geometry" />
        </mxCell>
        <mxCell id="MJl2RSiWA88DYP8mbdHT-24" value="主要用途：解析xml命名空间解析，具体标签的解析交给DubboBeanDefinitionParser处理" style="text;strokeColor=none;fillColor=none;align=left;verticalAlign=top;spacingLeft=4;spacingRight=4;overflow=hidden;rotatable=0;points=[[0,0.5],[1,0.5]];portConstraint=eastwest;whiteSpace=wrap;html=1;fontSize=20;" parent="MJl2RSiWA88DYP8mbdHT-23" vertex="1">
          <mxGeometry y="26" width="480" height="64" as="geometry" />
        </mxCell>
        <mxCell id="MJl2RSiWA88DYP8mbdHT-43" value="«interface»&lt;br&gt;&lt;b&gt;BeanDefinitionParser&lt;/b&gt;" style="html=1;whiteSpace=wrap;fontSize=20;fillColor=#dae8fc;strokeColor=#6c8ebf;" parent="1" vertex="1">
          <mxGeometry x="-720" y="576" width="480" height="50" as="geometry" />
        </mxCell>
        <mxCell id="MJl2RSiWA88DYP8mbdHT-44" value="&lt;span style=&quot;font-size: 20px;&quot;&gt;&lt;b&gt;DubboBeanDefinitionParser&lt;/b&gt;&lt;/span&gt;" style="swimlane;fontStyle=0;childLayout=stackLayout;horizontal=1;startSize=26;fillColor=#ffe6cc;horizontalStack=0;resizeParent=1;resizeParentMax=0;resizeLast=0;collapsible=1;marginBottom=0;whiteSpace=wrap;html=1;strokeColor=#d79b00;" parent="1" vertex="1">
          <mxGeometry x="-720" y="626" width="480" height="60" as="geometry" />
        </mxCell>
        <mxCell id="MJl2RSiWA88DYP8mbdHT-45" value="主要用途：解析xml方式定义的BeanDefinition" style="text;strokeColor=none;fillColor=none;align=left;verticalAlign=top;spacingLeft=4;spacingRight=4;overflow=hidden;rotatable=0;points=[[0,0.5],[1,0.5]];portConstraint=eastwest;whiteSpace=wrap;html=1;fontSize=20;" parent="MJl2RSiWA88DYP8mbdHT-44" vertex="1">
          <mxGeometry y="26" width="480" height="34" as="geometry" />
        </mxCell>
        <mxCell id="MJl2RSiWA88DYP8mbdHT-46" value="&lt;span style=&quot;font-size: 20px;&quot;&gt;&lt;b&gt;AnnotationBeanDefinitionParser&lt;/b&gt;&lt;/span&gt;" style="swimlane;fontStyle=0;childLayout=stackLayout;horizontal=1;startSize=26;fillColor=#ffe6cc;horizontalStack=0;resizeParent=1;resizeParentMax=0;resizeLast=0;collapsible=1;marginBottom=0;whiteSpace=wrap;html=1;strokeColor=#d79b00;" parent="1" vertex="1">
          <mxGeometry x="-720" y="686" width="480" height="120" as="geometry" />
        </mxCell>
        <mxCell id="MJl2RSiWA88DYP8mbdHT-47" value="主要用途：2.7.x 及更早版本，解析xml中&amp;lt;dubbo:annotation /&amp;gt;，扫描Dubbo的@Service，@Reference注解&amp;nbsp;" style="text;strokeColor=none;fillColor=none;align=left;verticalAlign=top;spacingLeft=4;spacingRight=4;overflow=hidden;rotatable=0;points=[[0,0.5],[1,0.5]];portConstraint=eastwest;whiteSpace=wrap;html=1;fontSize=20;" parent="MJl2RSiWA88DYP8mbdHT-46" vertex="1">
          <mxGeometry y="26" width="480" height="94" as="geometry" />
        </mxCell>
        <mxCell id="kx4sPDKNxDJQQ7E9ZJhp-7" value="«interface»&lt;br&gt;&lt;b&gt;FactoryBean&lt;/b&gt;" style="html=1;whiteSpace=wrap;fontSize=20;fillColor=#dae8fc;strokeColor=#6c8ebf;" parent="1" vertex="1">
          <mxGeometry x="96.5" y="1070" width="480" height="50" as="geometry" />
        </mxCell>
        <mxCell id="kx4sPDKNxDJQQ7E9ZJhp-8" value="&lt;span style=&quot;font-size: 20px;&quot;&gt;&lt;b&gt;ReferenceBean&lt;/b&gt;&lt;/span&gt;" style="swimlane;fontStyle=0;childLayout=stackLayout;horizontal=1;startSize=26;fillColor=#ffe6cc;horizontalStack=0;resizeParent=1;resizeParentMax=0;resizeLast=0;collapsible=1;marginBottom=0;whiteSpace=wrap;html=1;strokeColor=#d79b00;" parent="1" vertex="1">
          <mxGeometry x="96.5" y="1120" width="480" height="60" as="geometry" />
        </mxCell>
        <mxCell id="kx4sPDKNxDJQQ7E9ZJhp-9" value="主要用途：被调用的Dubbo服务生成远程调用代理" style="text;strokeColor=none;fillColor=none;align=left;verticalAlign=top;spacingLeft=4;spacingRight=4;overflow=hidden;rotatable=0;points=[[0,0.5],[1,0.5]];portConstraint=eastwest;whiteSpace=wrap;html=1;fontSize=20;" parent="kx4sPDKNxDJQQ7E9ZJhp-8" vertex="1">
          <mxGeometry y="26" width="480" height="34" as="geometry" />
        </mxCell>
        <mxCell id="kx4sPDKNxDJQQ7E9ZJhp-10" value="" style="endArrow=open;endFill=1;endSize=12;html=1;rounded=0;exitX=0.498;exitY=1.008;exitDx=0;exitDy=0;exitPerimeter=0;entryX=0.5;entryY=0;entryDx=0;entryDy=0;strokeWidth=2;" parent="1" source="MJl2RSiWA88DYP8mbdHT-24" target="MJl2RSiWA88DYP8mbdHT-43" edge="1">
          <mxGeometry width="160" relative="1" as="geometry">
            <mxPoint x="-460" y="501" as="sourcePoint" />
            <mxPoint x="-300" y="501" as="targetPoint" />
          </mxGeometry>
        </mxCell>
        <mxCell id="kx4sPDKNxDJQQ7E9ZJhp-16" value="&lt;span style=&quot;font-size: 20px; font-weight: 700;&quot;&gt;DubboConfigAliasPostProcessor&lt;/span&gt;" style="swimlane;fontStyle=0;childLayout=stackLayout;horizontal=1;startSize=26;fillColor=#ffe6cc;horizontalStack=0;resizeParent=1;resizeParentMax=0;resizeLast=0;collapsible=1;marginBottom=0;whiteSpace=wrap;html=1;strokeColor=#d79b00;" parent="1" vertex="1">
          <mxGeometry x="1520" y="900" width="480" height="60" as="geometry" />
        </mxCell>
        <mxCell id="kx4sPDKNxDJQQ7E9ZJhp-17" value="主要用途：" style="text;strokeColor=none;fillColor=none;align=left;verticalAlign=top;spacingLeft=4;spacingRight=4;overflow=hidden;rotatable=0;points=[[0,0.5],[1,0.5]];portConstraint=eastwest;whiteSpace=wrap;html=1;fontSize=20;" parent="kx4sPDKNxDJQQ7E9ZJhp-16" vertex="1">
          <mxGeometry y="26" width="480" height="34" as="geometry" />
        </mxCell>
        <mxCell id="kx4sPDKNxDJQQ7E9ZJhp-32" value="&lt;span style=&quot;font-size: 20px;&quot;&gt;&lt;b&gt;DubboBeanUtils&lt;/b&gt;&lt;/span&gt;" style="swimlane;fontStyle=0;childLayout=stackLayout;horizontal=1;startSize=26;fillColor=#ffe6cc;horizontalStack=0;resizeParent=1;resizeParentMax=0;resizeLast=0;collapsible=1;marginBottom=0;whiteSpace=wrap;html=1;strokeColor=#d79b00;" parent="1" vertex="1">
          <mxGeometry x="96.5" y="621" width="480" height="90" as="geometry" />
        </mxCell>
        <mxCell id="kx4sPDKNxDJQQ7E9ZJhp-33" value="&lt;div style=&quot;text-align: center;&quot;&gt;&lt;span style=&quot;background-color: transparent; color: light-dark(rgb(0, 0, 0), rgb(255, 255, 255));&quot;&gt;主要用途：&lt;/span&gt;&lt;/div&gt;" style="text;strokeColor=none;fillColor=none;align=left;verticalAlign=top;spacingLeft=4;spacingRight=4;overflow=hidden;rotatable=0;points=[[0,0.5],[1,0.5]];portConstraint=eastwest;whiteSpace=wrap;html=1;fontSize=20;" parent="kx4sPDKNxDJQQ7E9ZJhp-32" vertex="1">
          <mxGeometry y="26" width="480" height="64" as="geometry" />
        </mxCell>
        <mxCell id="kx4sPDKNxDJQQ7E9ZJhp-34" value="&lt;span style=&quot;font-size: 20px;&quot;&gt;&lt;b&gt;DubboSpringInitializer&lt;/b&gt;&lt;/span&gt;" style="swimlane;fontStyle=0;childLayout=stackLayout;horizontal=1;startSize=26;fillColor=#ffe6cc;horizontalStack=0;resizeParent=1;resizeParentMax=0;resizeLast=0;collapsible=1;marginBottom=0;whiteSpace=wrap;html=1;strokeColor=#d79b00;" parent="1" vertex="1">
          <mxGeometry x="96.5" y="330" width="480" height="210" as="geometry" />
        </mxCell>
        <mxCell id="kx4sPDKNxDJQQ7E9ZJhp-35" value="&lt;div style=&quot;text-align: center;&quot;&gt;&lt;span style=&quot;background-color: transparent; color: light-dark(rgb(0, 0, 0), rgb(255, 255, 255));&quot;&gt;主要用途：&lt;/span&gt;&lt;span style=&quot;background-color: transparent; text-align: left;&quot;&gt;Spring容器启动早期动态注册Dubbo的核心基础设施组件&lt;/span&gt;&lt;/div&gt;" style="text;strokeColor=none;fillColor=none;align=left;verticalAlign=top;spacingLeft=4;spacingRight=4;overflow=hidden;rotatable=0;points=[[0,0.5],[1,0.5]];portConstraint=eastwest;whiteSpace=wrap;html=1;fontSize=20;" parent="kx4sPDKNxDJQQ7E9ZJhp-34" vertex="1">
          <mxGeometry y="26" width="480" height="184" as="geometry" />
        </mxCell>
        <mxCell id="kx4sPDKNxDJQQ7E9ZJhp-36" value="" style="endArrow=open;endFill=1;endSize=12;html=1;rounded=0;entryX=0;entryY=0.5;entryDx=0;entryDy=0;strokeWidth=2;exitX=1;exitY=0.5;exitDx=0;exitDy=0;" parent="1" source="MJl2RSiWA88DYP8mbdHT-24" target="kx4sPDKNxDJQQ7E9ZJhp-35" edge="1">
          <mxGeometry width="160" relative="1" as="geometry">
            <mxPoint x="-80" y="388" as="sourcePoint" />
            <mxPoint x="250" y="660" as="targetPoint" />
          </mxGeometry>
        </mxCell>
        <mxCell id="kx4sPDKNxDJQQ7E9ZJhp-37" value="&lt;span style=&quot;font-size: 20px;&quot;&gt;&lt;b&gt;DubboConfigConfigurationRegistrar&lt;/b&gt;&lt;/span&gt;" style="swimlane;fontStyle=0;childLayout=stackLayout;horizontal=1;startSize=26;fillColor=#ffe6cc;horizontalStack=0;resizeParent=1;resizeParentMax=0;resizeLast=0;collapsible=1;marginBottom=0;whiteSpace=wrap;html=1;strokeColor=#d79b00;" parent="1" vertex="1">
          <mxGeometry x="-160" y="105" width="480" height="90" as="geometry" />
        </mxCell>
        <mxCell id="kx4sPDKNxDJQQ7E9ZJhp-38" value="&lt;div style=&quot;text-align: center;&quot;&gt;&lt;span style=&quot;background-color: transparent; color: light-dark(rgb(0, 0, 0), rgb(255, 255, 255));&quot;&gt;主要用途：&lt;/span&gt;&lt;/div&gt;" style="text;strokeColor=none;fillColor=none;align=left;verticalAlign=top;spacingLeft=4;spacingRight=4;overflow=hidden;rotatable=0;points=[[0,0.5],[1,0.5]];portConstraint=eastwest;whiteSpace=wrap;html=1;fontSize=20;" parent="kx4sPDKNxDJQQ7E9ZJhp-37" vertex="1">
          <mxGeometry y="26" width="480" height="64" as="geometry" />
        </mxCell>
        <mxCell id="kx4sPDKNxDJQQ7E9ZJhp-39" value="" style="endArrow=open;endFill=1;endSize=12;html=1;rounded=0;exitX=0.498;exitY=1.027;exitDx=0;exitDy=0;exitPerimeter=0;entryX=0.5;entryY=0;entryDx=0;entryDy=0;strokeWidth=2;" parent="1" source="kx4sPDKNxDJQQ7E9ZJhp-38" target="kx4sPDKNxDJQQ7E9ZJhp-34" edge="1">
          <mxGeometry width="160" relative="1" as="geometry">
            <mxPoint x="199" y="280" as="sourcePoint" />
            <mxPoint x="359" y="280" as="targetPoint" />
          </mxGeometry>
        </mxCell>
        <mxCell id="kx4sPDKNxDJQQ7E9ZJhp-40" value="&lt;span style=&quot;font-size: 20px;&quot;&gt;&lt;b&gt;DubboComponentScanRegistrar&lt;/b&gt;&lt;/span&gt;" style="swimlane;fontStyle=0;childLayout=stackLayout;horizontal=1;startSize=26;fillColor=#ffe6cc;horizontalStack=0;resizeParent=1;resizeParentMax=0;resizeLast=0;collapsible=1;marginBottom=0;whiteSpace=wrap;html=1;strokeColor=#d79b00;" parent="1" vertex="1">
          <mxGeometry x="400" y="110" width="480" height="90" as="geometry" />
        </mxCell>
        <mxCell id="kx4sPDKNxDJQQ7E9ZJhp-41" value="&lt;div style=&quot;text-align: center;&quot;&gt;&lt;span style=&quot;background-color: transparent; color: light-dark(rgb(0, 0, 0), rgb(255, 255, 255));&quot;&gt;主要用途：&lt;/span&gt;&lt;/div&gt;" style="text;strokeColor=none;fillColor=none;align=left;verticalAlign=top;spacingLeft=4;spacingRight=4;overflow=hidden;rotatable=0;points=[[0,0.5],[1,0.5]];portConstraint=eastwest;whiteSpace=wrap;html=1;fontSize=20;" parent="kx4sPDKNxDJQQ7E9ZJhp-40" vertex="1">
          <mxGeometry y="26" width="480" height="64" as="geometry" />
        </mxCell>
        <mxCell id="kx4sPDKNxDJQQ7E9ZJhp-43" value="&lt;span style=&quot;font-size: 20px;&quot;&gt;&lt;b&gt;DubboContextPostProcessor&lt;/b&gt;&lt;/span&gt;" style="swimlane;fontStyle=0;childLayout=stackLayout;horizontal=1;startSize=26;fillColor=#ffe6cc;horizontalStack=0;resizeParent=1;resizeParentMax=0;resizeLast=0;collapsible=1;marginBottom=0;whiteSpace=wrap;html=1;strokeColor=#d79b00;" parent="1" vertex="1">
          <mxGeometry x="1520" y="780" width="480" height="90" as="geometry" />
        </mxCell>
        <mxCell id="kx4sPDKNxDJQQ7E9ZJhp-44" value="&lt;div style=&quot;text-align: center;&quot;&gt;&lt;span style=&quot;background-color: transparent; color: light-dark(rgb(0, 0, 0), rgb(255, 255, 255));&quot;&gt;主要用途：&lt;/span&gt;&lt;/div&gt;" style="text;strokeColor=none;fillColor=none;align=left;verticalAlign=top;spacingLeft=4;spacingRight=4;overflow=hidden;rotatable=0;points=[[0,0.5],[1,0.5]];portConstraint=eastwest;whiteSpace=wrap;html=1;fontSize=20;" parent="kx4sPDKNxDJQQ7E9ZJhp-43" vertex="1">
          <mxGeometry y="26" width="480" height="64" as="geometry" />
        </mxCell>
        <mxCell id="kx4sPDKNxDJQQ7E9ZJhp-48" value="&lt;span style=&quot;font-size: 20px;&quot;&gt;&lt;b&gt;@EnableDubboConfig&lt;/b&gt;&lt;/span&gt;" style="swimlane;fontStyle=0;childLayout=stackLayout;horizontal=1;startSize=26;fillColor=#ffe6cc;horizontalStack=0;resizeParent=1;resizeParentMax=0;resizeLast=0;collapsible=1;marginBottom=0;whiteSpace=wrap;html=1;strokeColor=#d79b00;" parent="1" vertex="1">
          <mxGeometry x="-160" y="-90" width="480" height="60" as="geometry" />
        </mxCell>
        <mxCell id="kx4sPDKNxDJQQ7E9ZJhp-49" value="&lt;div style=&quot;text-align: center;&quot;&gt;&lt;span style=&quot;background-color: transparent; color: light-dark(rgb(0, 0, 0), rgb(255, 255, 255));&quot;&gt;主要用途：&lt;/span&gt;&lt;/div&gt;" style="text;strokeColor=none;fillColor=none;align=left;verticalAlign=top;spacingLeft=4;spacingRight=4;overflow=hidden;rotatable=0;points=[[0,0.5],[1,0.5]];portConstraint=eastwest;whiteSpace=wrap;html=1;fontSize=20;" parent="kx4sPDKNxDJQQ7E9ZJhp-48" vertex="1">
          <mxGeometry y="26" width="480" height="34" as="geometry" />
        </mxCell>
        <mxCell id="kx4sPDKNxDJQQ7E9ZJhp-50" value="&lt;span style=&quot;font-size: 20px;&quot;&gt;&lt;b&gt;@DubboComponentScan&lt;/b&gt;&lt;/span&gt;" style="swimlane;fontStyle=0;childLayout=stackLayout;horizontal=1;startSize=26;fillColor=#ffe6cc;horizontalStack=0;resizeParent=1;resizeParentMax=0;resizeLast=0;collapsible=1;marginBottom=0;whiteSpace=wrap;html=1;strokeColor=#d79b00;" parent="1" vertex="1">
          <mxGeometry x="395" y="-90" width="480" height="60" as="geometry" />
        </mxCell>
        <mxCell id="kx4sPDKNxDJQQ7E9ZJhp-51" value="&lt;div style=&quot;text-align: center;&quot;&gt;&lt;span style=&quot;background-color: transparent; color: light-dark(rgb(0, 0, 0), rgb(255, 255, 255));&quot;&gt;主要用途：&lt;/span&gt;&lt;/div&gt;" style="text;strokeColor=none;fillColor=none;align=left;verticalAlign=top;spacingLeft=4;spacingRight=4;overflow=hidden;rotatable=0;points=[[0,0.5],[1,0.5]];portConstraint=eastwest;whiteSpace=wrap;html=1;fontSize=20;" parent="kx4sPDKNxDJQQ7E9ZJhp-50" vertex="1">
          <mxGeometry y="26" width="480" height="34" as="geometry" />
        </mxCell>
        <mxCell id="kx4sPDKNxDJQQ7E9ZJhp-52" value="&lt;span style=&quot;font-size: 20px;&quot;&gt;&lt;b&gt;@EnableDubbo&lt;/b&gt;&lt;/span&gt;" style="swimlane;fontStyle=0;childLayout=stackLayout;horizontal=1;startSize=26;fillColor=#ffe6cc;horizontalStack=0;resizeParent=1;resizeParentMax=0;resizeLast=0;collapsible=1;marginBottom=0;whiteSpace=wrap;html=1;strokeColor=#d79b00;" parent="1" vertex="1">
          <mxGeometry x="111.5" y="-230" width="480" height="60" as="geometry" />
        </mxCell>
        <mxCell id="kx4sPDKNxDJQQ7E9ZJhp-53" value="&lt;div style=&quot;text-align: center;&quot;&gt;&lt;span style=&quot;background-color: transparent; color: light-dark(rgb(0, 0, 0), rgb(255, 255, 255));&quot;&gt;主要用途：&lt;/span&gt;&lt;/div&gt;" style="text;strokeColor=none;fillColor=none;align=left;verticalAlign=top;spacingLeft=4;spacingRight=4;overflow=hidden;rotatable=0;points=[[0,0.5],[1,0.5]];portConstraint=eastwest;whiteSpace=wrap;html=1;fontSize=20;" parent="kx4sPDKNxDJQQ7E9ZJhp-52" vertex="1">
          <mxGeometry y="26" width="480" height="34" as="geometry" />
        </mxCell>
        <mxCell id="kx4sPDKNxDJQQ7E9ZJhp-54" value="" style="endArrow=open;endFill=1;endSize=12;html=1;rounded=0;exitX=0.519;exitY=0.996;exitDx=0;exitDy=0;exitPerimeter=0;entryX=0.5;entryY=0;entryDx=0;entryDy=0;strokeWidth=2;" parent="1" source="kx4sPDKNxDJQQ7E9ZJhp-53" target="kx4sPDKNxDJQQ7E9ZJhp-50" edge="1">
          <mxGeometry width="160" relative="1" as="geometry">
            <mxPoint x="605" y="-60" as="sourcePoint" />
            <mxPoint x="765" y="-60" as="targetPoint" />
          </mxGeometry>
        </mxCell>
        <mxCell id="kx4sPDKNxDJQQ7E9ZJhp-55" value="" style="endArrow=open;endFill=1;endSize=12;html=1;rounded=0;entryX=0.5;entryY=0;entryDx=0;entryDy=0;exitX=0.523;exitY=1.004;exitDx=0;exitDy=0;exitPerimeter=0;strokeWidth=2;" parent="1" source="kx4sPDKNxDJQQ7E9ZJhp-53" target="kx4sPDKNxDJQQ7E9ZJhp-48" edge="1">
          <mxGeometry width="160" relative="1" as="geometry">
            <mxPoint x="585" y="-230" as="sourcePoint" />
            <mxPoint x="705" y="-180" as="targetPoint" />
          </mxGeometry>
        </mxCell>
        <mxCell id="kx4sPDKNxDJQQ7E9ZJhp-56" value="" style="endArrow=open;endFill=1;endSize=12;html=1;rounded=0;exitX=0.499;exitY=0.99;exitDx=0;exitDy=0;exitPerimeter=0;entryX=0.5;entryY=0;entryDx=0;entryDy=0;strokeWidth=2;" parent="1" source="kx4sPDKNxDJQQ7E9ZJhp-41" target="kx4sPDKNxDJQQ7E9ZJhp-34" edge="1">
          <mxGeometry width="160" relative="1" as="geometry">
            <mxPoint x="710" y="270" as="sourcePoint" />
            <mxPoint x="870" y="270" as="targetPoint" />
          </mxGeometry>
        </mxCell>
        <mxCell id="kx4sPDKNxDJQQ7E9ZJhp-58" value="«interface»&lt;br&gt;&lt;b&gt;BeanFactoryPostProcessor&lt;/b&gt;" style="html=1;whiteSpace=wrap;fontSize=20;fillColor=#dae8fc;strokeColor=#6c8ebf;" parent="1" vertex="1">
          <mxGeometry x="96.5" y="816" width="480" height="50" as="geometry" />
        </mxCell>
        <mxCell id="kx4sPDKNxDJQQ7E9ZJhp-59" value="&lt;span style=&quot;font-size: 20px; font-weight: 700;&quot;&gt;ReferenceAnnotationBeanPostProcessor&lt;/span&gt;" style="swimlane;fontStyle=0;childLayout=stackLayout;horizontal=1;startSize=26;fillColor=#ffe6cc;horizontalStack=0;resizeParent=1;resizeParentMax=0;resizeLast=0;collapsible=1;marginBottom=0;whiteSpace=wrap;html=1;strokeColor=#d79b00;" parent="1" vertex="1">
          <mxGeometry x="96.5" y="866" width="480" height="110" as="geometry" />
        </mxCell>
        <mxCell id="kx4sPDKNxDJQQ7E9ZJhp-60" value="主要用途：解析@DubboReference，@Reference 注解（在Spring Bean的属性填充阶段），注册ReferenceBean" style="text;strokeColor=none;fillColor=none;align=left;verticalAlign=top;spacingLeft=4;spacingRight=4;overflow=hidden;rotatable=0;points=[[0,0.5],[1,0.5]];portConstraint=eastwest;whiteSpace=wrap;html=1;fontSize=20;" parent="kx4sPDKNxDJQQ7E9ZJhp-59" vertex="1">
          <mxGeometry y="26" width="480" height="84" as="geometry" />
        </mxCell>
        <mxCell id="kx4sPDKNxDJQQ7E9ZJhp-61" value="" style="endArrow=open;endFill=1;endSize=12;html=1;rounded=0;exitX=0.499;exitY=1.002;exitDx=0;exitDy=0;exitPerimeter=0;entryX=0.5;entryY=0;entryDx=0;entryDy=0;strokeWidth=2;" parent="1" source="kx4sPDKNxDJQQ7E9ZJhp-35" target="kx4sPDKNxDJQQ7E9ZJhp-32" edge="1">
          <mxGeometry width="160" relative="1" as="geometry">
            <mxPoint x="620" y="670" as="sourcePoint" />
            <mxPoint x="780" y="670" as="targetPoint" />
          </mxGeometry>
        </mxCell>
        <mxCell id="kx4sPDKNxDJQQ7E9ZJhp-62" value="" style="endArrow=open;endFill=1;endSize=12;html=1;rounded=0;exitX=0.502;exitY=1.015;exitDx=0;exitDy=0;exitPerimeter=0;entryX=0.5;entryY=0;entryDx=0;entryDy=0;strokeWidth=2;fontSize=15;" parent="1" source="kx4sPDKNxDJQQ7E9ZJhp-33" target="kx4sPDKNxDJQQ7E9ZJhp-58" edge="1">
          <mxGeometry width="160" relative="1" as="geometry">
            <mxPoint x="570" y="810" as="sourcePoint" />
            <mxPoint x="730" y="810" as="targetPoint" />
          </mxGeometry>
        </mxCell>
        <mxCell id="r4sQ5H7cFToyG9vY6RSI-30" value="注册" style="edgeLabel;html=1;align=center;verticalAlign=middle;resizable=0;points=[];fontSize=14;fontStyle=1" parent="kx4sPDKNxDJQQ7E9ZJhp-62" vertex="1" connectable="0">
          <mxGeometry x="-0.1855" relative="1" as="geometry">
            <mxPoint y="1" as="offset" />
          </mxGeometry>
        </mxCell>
        <mxCell id="kx4sPDKNxDJQQ7E9ZJhp-70" value="" style="endArrow=open;endFill=1;endSize=12;html=1;rounded=0;exitX=0.5;exitY=1.013;exitDx=0;exitDy=0;exitPerimeter=0;entryX=0.5;entryY=0;entryDx=0;entryDy=0;" parent="1" source="kx4sPDKNxDJQQ7E9ZJhp-60" target="kx4sPDKNxDJQQ7E9ZJhp-7" edge="1">
          <mxGeometry width="160" relative="1" as="geometry">
            <mxPoint x="730" y="1120" as="sourcePoint" />
            <mxPoint x="890" y="1120" as="targetPoint" />
          </mxGeometry>
        </mxCell>
        <mxCell id="kx4sPDKNxDJQQ7E9ZJhp-71" value="&lt;span style=&quot;font-size: 20px;&quot;&gt;&lt;b&gt;spring.handlers&lt;/b&gt;&lt;/span&gt;" style="swimlane;fontStyle=0;childLayout=stackLayout;horizontal=1;startSize=26;fillColor=#ffe6cc;horizontalStack=0;resizeParent=1;resizeParentMax=0;resizeLast=0;collapsible=1;marginBottom=0;whiteSpace=wrap;html=1;strokeColor=#d79b00;" parent="1" vertex="1">
          <mxGeometry x="-720" y="110" width="480" height="90" as="geometry" />
        </mxCell>
        <mxCell id="kx4sPDKNxDJQQ7E9ZJhp-72" value="&lt;div style=&quot;text-align: left;&quot;&gt;&lt;span style=&quot;background-color: transparent; color: light-dark(rgb(0, 0, 0), rgb(255, 255, 255));&quot;&gt;主要用途：&lt;/span&gt;&lt;span style=&quot;background-color: transparent;&quot;&gt;XML配置扩展，&lt;/span&gt;&lt;span style=&quot;background-color: transparent; color: light-dark(rgb(0, 0, 0), rgb(255, 255, 255));&quot;&gt;将XML命名空间URI映射到对应的命名空间处理器&lt;/span&gt;&lt;/div&gt;" style="text;strokeColor=none;fillColor=none;align=left;verticalAlign=top;spacingLeft=4;spacingRight=4;overflow=hidden;rotatable=0;points=[[0,0.5],[1,0.5]];portConstraint=eastwest;whiteSpace=wrap;html=1;fontSize=20;" parent="kx4sPDKNxDJQQ7E9ZJhp-71" vertex="1">
          <mxGeometry y="26" width="480" height="64" as="geometry" />
        </mxCell>
        <mxCell id="kx4sPDKNxDJQQ7E9ZJhp-73" value="" style="endArrow=open;endFill=1;endSize=12;html=1;rounded=0;exitX=0.501;exitY=0.987;exitDx=0;exitDy=0;exitPerimeter=0;" parent="1" source="kx4sPDKNxDJQQ7E9ZJhp-72" target="MJl2RSiWA88DYP8mbdHT-1" edge="1">
          <mxGeometry width="160" relative="1" as="geometry">
            <mxPoint x="-480" y="260" as="sourcePoint" />
            <mxPoint x="-320" y="260" as="targetPoint" />
          </mxGeometry>
        </mxCell>
        <mxCell id="7cc9NkJdc3gj587qjg6O-1" value="SpringBoot代码" style="rounded=0;whiteSpace=wrap;html=1;fontSize=20;fillColor=#d5e8d4;strokeColor=#82b366;" parent="1" vertex="1">
          <mxGeometry x="-10" y="1400" width="160" height="40" as="geometry" />
        </mxCell>
        <mxCell id="r4sQ5H7cFToyG9vY6RSI-1" value="&lt;span style=&quot;font-size: 20px;&quot;&gt;&lt;b&gt;ReferenceBeanManager&lt;/b&gt;&lt;/span&gt;" style="swimlane;fontStyle=0;childLayout=stackLayout;horizontal=1;startSize=26;fillColor=#ffe6cc;horizontalStack=0;resizeParent=1;resizeParentMax=0;resizeLast=0;collapsible=1;marginBottom=0;whiteSpace=wrap;html=1;strokeColor=#d79b00;" parent="1" vertex="1">
          <mxGeometry x="-550" y="1104" width="480" height="90" as="geometry" />
        </mxCell>
        <mxCell id="r4sQ5H7cFToyG9vY6RSI-2" value="&lt;div style=&quot;text-align: left;&quot;&gt;&lt;span style=&quot;background-color: transparent; color: light-dark(rgb(0, 0, 0), rgb(255, 255, 255));&quot;&gt;主要用途：&lt;/span&gt;&lt;span style=&quot;background-color: transparent; text-align: left;&quot;&gt;解决循环依赖问题，&lt;/span&gt;&lt;span style=&quot;background-color: transparent; text-align: left;&quot;&gt;集中式管理ReferenceBean&lt;/span&gt;&lt;/div&gt;" style="text;strokeColor=none;fillColor=none;align=left;verticalAlign=top;spacingLeft=4;spacingRight=4;overflow=hidden;rotatable=0;points=[[0,0.5],[1,0.5]];portConstraint=eastwest;whiteSpace=wrap;html=1;fontSize=20;" parent="r4sQ5H7cFToyG9vY6RSI-1" vertex="1">
          <mxGeometry y="26" width="480" height="64" as="geometry" />
        </mxCell>
        <mxCell id="r4sQ5H7cFToyG9vY6RSI-4" value="" style="endArrow=open;endFill=1;endSize=12;html=1;rounded=0;exitX=1;exitY=0.5;exitDx=0;exitDy=0;entryX=0;entryY=0.5;entryDx=0;entryDy=0;" parent="1" source="r4sQ5H7cFToyG9vY6RSI-2" target="kx4sPDKNxDJQQ7E9ZJhp-9" edge="1">
          <mxGeometry width="160" relative="1" as="geometry">
            <mxPoint x="-150" y="1250" as="sourcePoint" />
            <mxPoint x="10" y="1250" as="targetPoint" />
          </mxGeometry>
        </mxCell>
        <mxCell id="r4sQ5H7cFToyG9vY6RSI-5" value="«interface»&lt;br&gt;&lt;b&gt;BeanDefinitionRegistryPostProcessor&lt;/b&gt;" style="html=1;whiteSpace=wrap;fontSize=20;fillColor=#dae8fc;strokeColor=#6c8ebf;" parent="1" vertex="1">
          <mxGeometry x="900" y="611" width="480" height="50" as="geometry" />
        </mxCell>
        <mxCell id="r4sQ5H7cFToyG9vY6RSI-6" value="&lt;span style=&quot;font-size: 20px; font-weight: 700;&quot;&gt;ServiceAnnotationPostProcessor&lt;/span&gt;" style="swimlane;fontStyle=0;childLayout=stackLayout;horizontal=1;startSize=26;fillColor=#ffe6cc;horizontalStack=0;resizeParent=1;resizeParentMax=0;resizeLast=0;collapsible=1;marginBottom=0;whiteSpace=wrap;html=1;strokeColor=#d79b00;" parent="1" vertex="1">
          <mxGeometry x="900" y="661" width="480" height="90" as="geometry" />
        </mxCell>
        <mxCell id="r4sQ5H7cFToyG9vY6RSI-7" value="主要用途：Dubbo较新版本解析@DubboService，@Service注解，注册ServiceBean" style="text;strokeColor=none;fillColor=none;align=left;verticalAlign=top;spacingLeft=4;spacingRight=4;overflow=hidden;rotatable=0;points=[[0,0.5],[1,0.5]];portConstraint=eastwest;whiteSpace=wrap;html=1;fontSize=20;" parent="r4sQ5H7cFToyG9vY6RSI-6" vertex="1">
          <mxGeometry y="26" width="480" height="64" as="geometry" />
        </mxCell>
        <mxCell id="r4sQ5H7cFToyG9vY6RSI-8" value="«interface»&lt;br&gt;&lt;b&gt;InitializingBean&lt;/b&gt;" style="html=1;whiteSpace=wrap;fontSize=20;fillColor=#dae8fc;strokeColor=#6c8ebf;" parent="1" vertex="1">
          <mxGeometry x="896" y="1070" width="480" height="50" as="geometry" />
        </mxCell>
        <mxCell id="r4sQ5H7cFToyG9vY6RSI-9" value="&lt;span style=&quot;font-size: 20px;&quot;&gt;&lt;b&gt;ServiceBean&lt;/b&gt;&lt;/span&gt;" style="swimlane;fontStyle=0;childLayout=stackLayout;horizontal=1;startSize=26;fillColor=#ffe6cc;horizontalStack=0;resizeParent=1;resizeParentMax=0;resizeLast=0;collapsible=1;marginBottom=0;whiteSpace=wrap;html=1;strokeColor=#d79b00;" parent="1" vertex="1">
          <mxGeometry x="896" y="1120" width="480" height="60" as="geometry" />
        </mxCell>
        <mxCell id="r4sQ5H7cFToyG9vY6RSI-10" value="主要用途：将 Dubbo 服务注册到注册中心" style="text;strokeColor=none;fillColor=none;align=left;verticalAlign=top;spacingLeft=4;spacingRight=4;overflow=hidden;rotatable=0;points=[[0,0.5],[1,0.5]];portConstraint=eastwest;whiteSpace=wrap;html=1;fontSize=20;" parent="r4sQ5H7cFToyG9vY6RSI-9" vertex="1">
          <mxGeometry y="26" width="480" height="34" as="geometry" />
        </mxCell>
        <mxCell id="r4sQ5H7cFToyG9vY6RSI-11" value="«interface»&lt;br&gt;&lt;b&gt;BeanFactoryPostProcessor&lt;/b&gt;" style="html=1;whiteSpace=wrap;fontSize=20;fillColor=#dae8fc;strokeColor=#6c8ebf;" parent="1" vertex="1">
          <mxGeometry x="900" y="561" width="480" height="50" as="geometry" />
        </mxCell>
        <mxCell id="r4sQ5H7cFToyG9vY6RSI-21" value="" style="endArrow=open;endFill=1;endSize=12;html=1;rounded=0;entryX=0.5;entryY=0;entryDx=0;entryDy=0;strokeWidth=2;exitX=0.5;exitY=1.029;exitDx=0;exitDy=0;exitPerimeter=0;" parent="1" source="r4sQ5H7cFToyG9vY6RSI-35" target="r4sQ5H7cFToyG9vY6RSI-8" edge="1">
          <mxGeometry width="160" relative="1" as="geometry">
            <mxPoint x="1130" y="1004" as="sourcePoint" />
            <mxPoint x="1690" y="1037" as="targetPoint" />
          </mxGeometry>
        </mxCell>
        <mxCell id="r4sQ5H7cFToyG9vY6RSI-22" value="«interface»&lt;br&gt;&lt;b&gt;ImportBeanDefinitionRegistrar&lt;/b&gt;" style="html=1;whiteSpace=wrap;fontSize=20;fillColor=#dae8fc;strokeColor=#6c8ebf;" parent="1" vertex="1">
          <mxGeometry x="111.5" y="10" width="480" height="50" as="geometry" />
        </mxCell>
        <mxCell id="r4sQ5H7cFToyG9vY6RSI-23" value="" style="endArrow=open;endFill=1;endSize=12;html=1;rounded=0;exitX=0.511;exitY=0.969;exitDx=0;exitDy=0;exitPerimeter=0;entryX=0.5;entryY=0;entryDx=0;entryDy=0;strokeWidth=2;" parent="1" source="kx4sPDKNxDJQQ7E9ZJhp-51" target="kx4sPDKNxDJQQ7E9ZJhp-40" edge="1">
          <mxGeometry width="160" relative="1" as="geometry">
            <mxPoint x="1140" y="150" as="sourcePoint" />
            <mxPoint x="1300" y="150" as="targetPoint" />
          </mxGeometry>
        </mxCell>
        <mxCell id="r4sQ5H7cFToyG9vY6RSI-24" value="" style="endArrow=open;endFill=1;endSize=12;html=1;rounded=0;exitX=0.494;exitY=0.98;exitDx=0;exitDy=0;exitPerimeter=0;entryX=0.5;entryY=0;entryDx=0;entryDy=0;strokeWidth=2;" parent="1" source="kx4sPDKNxDJQQ7E9ZJhp-49" target="kx4sPDKNxDJQQ7E9ZJhp-37" edge="1">
          <mxGeometry width="160" relative="1" as="geometry">
            <mxPoint x="420" as="sourcePoint" />
            <mxPoint x="580" as="targetPoint" />
          </mxGeometry>
        </mxCell>
        <mxCell id="r4sQ5H7cFToyG9vY6RSI-25" value="" style="endArrow=open;endFill=1;endSize=12;html=1;rounded=0;exitX=0.5;exitY=1;exitDx=0;exitDy=0;entryX=0.75;entryY=0;entryDx=0;entryDy=0;strokeWidth=2;" parent="1" source="r4sQ5H7cFToyG9vY6RSI-22" target="kx4sPDKNxDJQQ7E9ZJhp-37" edge="1">
          <mxGeometry width="160" relative="1" as="geometry">
            <mxPoint x="980" y="20" as="sourcePoint" />
            <mxPoint x="1140" y="20" as="targetPoint" />
          </mxGeometry>
        </mxCell>
        <mxCell id="r4sQ5H7cFToyG9vY6RSI-26" value="" style="endArrow=open;endFill=1;endSize=12;html=1;rounded=0;exitX=0.5;exitY=1;exitDx=0;exitDy=0;entryX=0.25;entryY=0;entryDx=0;entryDy=0;strokeWidth=2;" parent="1" source="r4sQ5H7cFToyG9vY6RSI-22" target="kx4sPDKNxDJQQ7E9ZJhp-40" edge="1">
          <mxGeometry width="160" relative="1" as="geometry">
            <mxPoint x="1100" y="30" as="sourcePoint" />
            <mxPoint x="1260" y="30" as="targetPoint" />
          </mxGeometry>
        </mxCell>
        <mxCell id="r4sQ5H7cFToyG9vY6RSI-27" value="" style="endArrow=open;endFill=1;endSize=12;html=1;rounded=0;exitX=0.754;exitY=0.989;exitDx=0;exitDy=0;entryX=0;entryY=0.5;entryDx=0;entryDy=0;exitPerimeter=0;fontSize=14;fontStyle=1;strokeWidth=2;" parent="1" source="kx4sPDKNxDJQQ7E9ZJhp-41" target="r4sQ5H7cFToyG9vY6RSI-7" edge="1">
          <mxGeometry width="160" relative="1" as="geometry">
            <mxPoint x="760" y="270" as="sourcePoint" />
            <mxPoint x="1130" y="290" as="targetPoint" />
          </mxGeometry>
        </mxCell>
        <mxCell id="r4sQ5H7cFToyG9vY6RSI-32" value="&lt;span style=&quot;font-size: 20px;&quot;&gt;ClassPathBeanDefinitionScanner&lt;/span&gt;" style="swimlane;fontStyle=0;childLayout=stackLayout;horizontal=1;startSize=26;fillColor=#dae8fc;horizontalStack=0;resizeParent=1;resizeParentMax=0;resizeLast=0;collapsible=1;marginBottom=0;whiteSpace=wrap;html=1;strokeColor=#6c8ebf;" parent="1" vertex="1">
          <mxGeometry x="896" y="826" width="480" height="90" as="geometry" />
        </mxCell>
        <mxCell id="r4sQ5H7cFToyG9vY6RSI-33" value="&lt;div style=&quot;text-align: left;&quot;&gt;&lt;span style=&quot;background-color: transparent; color: light-dark(rgb(0, 0, 0), rgb(255, 255, 255));&quot;&gt;主要用途：扫描Bean定义&lt;/span&gt;&lt;/div&gt;" style="text;strokeColor=none;fillColor=none;align=left;verticalAlign=top;spacingLeft=4;spacingRight=4;overflow=hidden;rotatable=0;points=[[0,0.5],[1,0.5]];portConstraint=eastwest;whiteSpace=wrap;html=1;fontSize=20;" parent="r4sQ5H7cFToyG9vY6RSI-32" vertex="1">
          <mxGeometry y="26" width="480" height="64" as="geometry" />
        </mxCell>
        <mxCell id="r4sQ5H7cFToyG9vY6RSI-34" value="&lt;span style=&quot;font-size: 20px;&quot;&gt;&lt;b&gt;DubboClassPathBeanDefinitionScanner&lt;/b&gt;&lt;/span&gt;" style="swimlane;fontStyle=0;childLayout=stackLayout;horizontal=1;startSize=26;fillColor=#ffe6cc;horizontalStack=0;resizeParent=1;resizeParentMax=0;resizeLast=0;collapsible=1;marginBottom=0;whiteSpace=wrap;html=1;strokeColor=#d79b00;" parent="1" vertex="1">
          <mxGeometry x="896" y="916" width="480" height="60" as="geometry" />
        </mxCell>
        <mxCell id="r4sQ5H7cFToyG9vY6RSI-35" value="主要用途：" style="text;strokeColor=none;fillColor=none;align=left;verticalAlign=top;spacingLeft=4;spacingRight=4;overflow=hidden;rotatable=0;points=[[0,0.5],[1,0.5]];portConstraint=eastwest;whiteSpace=wrap;html=1;fontSize=20;" parent="r4sQ5H7cFToyG9vY6RSI-34" vertex="1">
          <mxGeometry y="26" width="480" height="34" as="geometry" />
        </mxCell>
        <mxCell id="r4sQ5H7cFToyG9vY6RSI-37" value="" style="endArrow=open;endFill=1;endSize=12;html=1;rounded=0;exitX=0.492;exitY=1.042;exitDx=0;exitDy=0;exitPerimeter=0;entryX=0.5;entryY=0;entryDx=0;entryDy=0;strokeWidth=2;" parent="1" source="r4sQ5H7cFToyG9vY6RSI-7" target="r4sQ5H7cFToyG9vY6RSI-32" edge="1">
          <mxGeometry width="160" relative="1" as="geometry">
            <mxPoint x="1470" y="1180" as="sourcePoint" />
            <mxPoint x="1630" y="1180" as="targetPoint" />
          </mxGeometry>
        </mxCell>
        <mxCell id="OFLG1O5rRiMJ6OSDFT6b-1" value="&lt;b&gt;AbstractProxyInvoker&lt;/b&gt;" style="swimlane;fontStyle=0;childLayout=stackLayout;horizontal=1;startSize=26;fillColor=#ffe6cc;horizontalStack=0;resizeParent=1;resizeParentMax=0;resizeLast=0;collapsible=1;marginBottom=0;whiteSpace=wrap;html=1;strokeColor=#d79b00;fontSize=20;" vertex="1" parent="1">
          <mxGeometry x="1640" y="180" width="480" height="90" as="geometry" />
        </mxCell>
        <mxCell id="OFLG1O5rRiMJ6OSDFT6b-2" value="&lt;div style=&quot;text-align: center;&quot;&gt;&lt;span style=&quot;background-color: transparent; color: light-dark(rgb(0, 0, 0), rgb(255, 255, 255));&quot;&gt;主要用途：&lt;/span&gt;&lt;span style=&quot;background-color: transparent; color: light-dark(rgb(0, 0, 0), rgb(255, 255, 255));&quot;&gt;接入cat涉及改造该类&lt;/span&gt;&lt;/div&gt;" style="text;strokeColor=none;fillColor=none;align=left;verticalAlign=top;spacingLeft=4;spacingRight=4;overflow=hidden;rotatable=0;points=[[0,0.5],[1,0.5]];portConstraint=eastwest;whiteSpace=wrap;html=1;fontSize=20;" vertex="1" parent="OFLG1O5rRiMJ6OSDFT6b-1">
          <mxGeometry y="26" width="480" height="64" as="geometry" />
        </mxCell>
        <mxCell id="OFLG1O5rRiMJ6OSDFT6b-3" value="&lt;span style=&quot;font-size: 20px;&quot;&gt;&lt;b&gt;DubboContextPostProcessor&lt;/b&gt;&lt;/span&gt;" style="swimlane;fontStyle=0;childLayout=stackLayout;horizontal=1;startSize=26;fillColor=#ffe6cc;horizontalStack=0;resizeParent=1;resizeParentMax=0;resizeLast=0;collapsible=1;marginBottom=0;whiteSpace=wrap;html=1;strokeColor=#d79b00;" vertex="1" parent="1">
          <mxGeometry x="1640" y="370" width="480" height="90" as="geometry" />
        </mxCell>
        <mxCell id="OFLG1O5rRiMJ6OSDFT6b-4" value="&lt;div style=&quot;text-align: center;&quot;&gt;&lt;span style=&quot;background-color: transparent; color: light-dark(rgb(0, 0, 0), rgb(255, 255, 255));&quot;&gt;主要用途：&lt;/span&gt;&lt;/div&gt;" style="text;strokeColor=none;fillColor=none;align=left;verticalAlign=top;spacingLeft=4;spacingRight=4;overflow=hidden;rotatable=0;points=[[0,0.5],[1,0.5]];portConstraint=eastwest;whiteSpace=wrap;html=1;fontSize=20;" vertex="1" parent="OFLG1O5rRiMJ6OSDFT6b-3">
          <mxGeometry y="26" width="480" height="64" as="geometry" />
        </mxCell>
        <mxCell id="OFLG1O5rRiMJ6OSDFT6b-5" value="&lt;span&gt;&lt;b&gt;AbstractInvoker&lt;/b&gt;&lt;/span&gt;" style="swimlane;fontStyle=0;childLayout=stackLayout;horizontal=1;startSize=26;fillColor=#ffe6cc;horizontalStack=0;resizeParent=1;resizeParentMax=0;resizeLast=0;collapsible=1;marginBottom=0;whiteSpace=wrap;html=1;strokeColor=#d79b00;fontSize=20;" vertex="1" parent="1">
          <mxGeometry x="1640" y="-10" width="480" height="90" as="geometry" />
        </mxCell>
        <mxCell id="OFLG1O5rRiMJ6OSDFT6b-6" value="&lt;div style=&quot;text-align: center;&quot;&gt;&lt;span style=&quot;background-color: transparent; color: light-dark(rgb(0, 0, 0), rgb(255, 255, 255));&quot;&gt;主要用途：&lt;/span&gt;&lt;span style=&quot;background-color: transparent; color: light-dark(rgb(0, 0, 0), rgb(255, 255, 255));&quot;&gt;接入cat涉及改造该类&lt;/span&gt;&lt;/div&gt;" style="text;strokeColor=none;fillColor=none;align=left;verticalAlign=top;spacingLeft=4;spacingRight=4;overflow=hidden;rotatable=0;points=[[0,0.5],[1,0.5]];portConstraint=eastwest;whiteSpace=wrap;html=1;fontSize=20;" vertex="1" parent="OFLG1O5rRiMJ6OSDFT6b-5">
          <mxGeometry y="26" width="480" height="64" as="geometry" />
        </mxCell>
      </root>
    </mxGraphModel>
  </diagram>
</mxfile>
